<svg width="10" height="10" fill="none" xmlns="http://www.w3.org/2000/svg"><path d="M6.424 9.26c-.21-.05-.41-.154-.597-.265a6.796 6.796 0 01-.993-.706 15.716 15.716 0 01-.797-.717 9.928 9.928 0 01-2.092-2.877 9.699 9.699 0 01-.623-1.564 6.19 6.19 0 01-.174-.805 1.1 1.1 0 01.262-.86c.2-.246.453-.434.745-.578.16-.075.32-.161.499-.209a1.07 1.07 0 01.398-.052.622.622 0 01.298.103c.225.165.382.382.51.615.221.4.38.809.498 1.242l.042.178c.03.176-.038.283-.197.358a2.61 2.61 0 01-.64.187c-.1.01-.2.031-.302.053-.174.026-.267.139-.33.293a.529.529 0 000 .337c.085.279.206.555.357.804a7.879 7.879 0 001.677 2.06l.158.138c.171.13.387.147.587.048.133-.07.213-.174.306-.287.123-.151.26-.31.396-.458.076-.083.161-.153.295-.155a.478.478 0 01.311.095c.205.15.378.337.554.513.247.25.48.518.686.792.068.094.135.2.203.295a.476.476 0 01.034.424c-.069.186-.216.331-.371.452a2.903 2.903 0 01-.95.496 1.29 1.29 0 01-.75.048z" fill="#030303"/></svg>