<svg width="123" height="123" fill="none" xmlns="http://www.w3.org/2000/svg"><g filter="url(#filter0_b)"><circle cx="61.5" cy="61.5" r="61.5" fill="#19191B"/></g><path d="M59.235 76.518c-.29.401-.58.802-.855 1.22-.26.402-.23.74.092 1.105a58.208 58.208 0 001.837 2.006c.444.462.734.49 1.269.19.504-.269.993-.585 1.498-.885.397-.228.795-.303 1.238-.086.627.318 1.24.619 1.866.936a.874.874 0 01.444.585c.046.17.092.34.123.525.108.571.215 1.173.307 1.758.062.34.276.532.597.622.138.021.276.073.398.078.887.068 1.758.12 2.63.172.428.018.688-.2.825-.578.076-.257.153-.514.198-.772.092-.425.168-.865.26-1.29a.993.993 0 01.671-.767c.642-.218 1.27-.421 1.911-.64a.84.84 0 01.734.093c.245.163.505.342.765.522.352.244.704.52 1.071.78.52.358.857.342 1.315-.068a94.63 94.63 0 001.849-1.712c.382-.367.412-.733.136-1.204l-1.056-1.743a1.096 1.096 0 01-.062-1.104c.29-.585.565-1.186.824-1.772.138-.315.367-.474.688-.537.23-.067.474-.087.703-.123.49-.072 1.01-.111 1.499-.213.427-.074.657-.385.687-.813l.045-.962-.002-1.928c-.015-.108-.046-.201-.107-.173-.214-.315-.535-.436-.856-.526-.52-.144-1.056-.305-1.591-.434-.52-.114-.857-.404-1.025-.916-.215-.59-.445-1.197-.66-1.787a.837.837 0 01.092-.762c.412-.61.81-1.205 1.237-1.8.214-.327.229-.648 0-.948a19.719 19.719 0 00-.98-1.205c-.352-.397-.735-.765-1.117-1.133-.245-.255-.536-.314-.811-.172-.504.239-.993.524-1.467.795-.199.099-.382.214-.581.312-.352.184-.688.17-1.04-.013-.505-.25-1.01-.532-1.53-.768s-.795-.615-.857-1.169a17.157 17.157 0 00-.246-1.54 1.687 1.687 0 00-.214-.622.891.891 0 00-.75-.444c-.933-.024-1.896-.08-2.844-.12-.03-.001-.076-.019-.107-.02-.076.012-.138.04-.214.052-.245.174-.382.428-.458.716-.046.136-.061.273-.107.408-.122.546-.259 1.107-.38 1.653-.062.272-.23.434-.49.53l-1.697.617c-.55.222-1.04.14-1.514-.263a43.8 43.8 0 00-1.438-1.07c-.398-.292-.703-.305-1.07.016-.718.597-1.39 1.212-2.063 1.826-.336.323-.366.628-.152 1.065.046.11.107.234.169.329.306.502.627 1.02.934 1.523.214.346.245.684.092 1.045a54.44 54.44 0 00-.763 1.713.907.907 0 01-.657.508 5.026 5.026 0 01-.52.1c-.58.068-1.162.166-1.743.233-.336.047-.52.254-.596.572-.03.12-.076.257-.076.38-.03.916-.029 1.834-.059 2.751 0 .276.169.482.398.599.26.118.505.22.75.291.474.127.979.256 1.468.368.428.11.719.382.887.803m11.851.759c1.911-.578 2.873-2.604 2.214-4.544-.537-1.6-2.556-3-4.605-2.352-1.865.564-2.872 2.603-2.213 4.483" stroke="#929292" stroke-width="2" stroke-miterlimit="10"/><path d="M49.844 61.518c.327-.216.654-.433.954-.665.3-.232.606-.264.96-.105.327.143.654.285.996.402a.95.95 0 00.428.095c.2-.005.385-.074.511-.285.327-.575.68-1.135 1.012-1.689.016-.026.037-.032.053-.058l.032-.142c-.006-.201-.117-.375-.264-.518-.064-.074-.148-.142-.211-.216-.27-.27-.564-.555-.833-.824a.576.576 0 01-.143-.48c.074-.423.148-.845.2-1.262.058-.396.258-.67.649-.813.39-.142.754-.3 1.112-.48.317-.169.412-.327.348-.67l-.406-1.895c-.058-.322-.248-.454-.564-.465-.09 0-.159-.005-.248-.005l-1.203.03c-.29.006-.49-.079-.659-.306-.242-.343-.49-.707-.76-1.066a.62.62 0 01-.1-.581l.111-.364c.132-.37.28-.766.432-1.14.08-.222.01-.407-.142-.57-.058-.053-.122-.127-.2-.175l-1.599-1.014a.437.437 0 00-.485.032c-.132.1-.28.227-.406.348-.253.242-.48.501-.706.76-.211.232-.464.295-.765.258-.284-.063-.585-.1-.864-.143-.744-.106-.834-.196-1.14-.882-.147-.322-.274-.65-.443-.966-.163-.296-.369-.401-.69-.343-.596.126-1.192.253-1.783.4-.422.105-.538.269-.543.697.01.4.027.823.037 1.224.016.333-.073.602-.342.781-.385.254-.786.533-1.17.786-.154.106-.333.106-.502.058a3.705 3.705 0 00-.343-.116c-.369-.132-.764-.28-1.139-.433-.221-.08-.406-.01-.57.142a.898.898 0 00-.194.206l-.965 1.52c-.163.243-.126.48.064.702.126.148.247.275.39.396.21.217.438.407.67.618.205.195.285.422.237.68-.063.465-.153.914-.237 1.384a.584.584 0 01-.3.412c-.18.09-.359.179-.56.274-.284.116-.569.232-.827.364-.38.184-.485.39-.4.818.126.596.247 1.172.39 1.742.09.359.306.507.664.507.47-.005.912-.026 1.382-.031.269 0 .516.095.67.349.253.385.522.744.775 1.13.137.19.142.39.084.607-.031.142-.1.316-.152.464-.138.348-.285.654-.38.992-.09.27.021.534.264.697.19.132.38.264.564.375.374.243.37.222.738.444l.633.29c.248.006.433-.152.59-.326.264-.29.538-.539.781-.824.227-.258.517-.353.87-.284.427.095.849.169 1.27.243a.58.58 0 01.418.322c.205.465.432.924.638 1.389a.51.51 0 00.553.333c.349-.043.691-.106 1.034-.169.338-.084.69-.195 1.028-.28m-2.538-12.04c-1.82-.376-3.233.964-3.412 2.22-.29 1.352.417 2.656 1.63 3.206m3.965-3.325c.1.402.122.845.027 1.273-.262 1.32-1.358 2.118-2.445 2.276" stroke="#fff" stroke-width="2" stroke-miterlimit="10"/><path d="M99 62.5C99 41.237 81.763 24 60.5 24S22 41.237 22 62.5a38.36 38.36 0 003.472 16" stroke="#fff" stroke-width="2"/><path d="M92.442 84.5c-6.916 10.255-18.641 17-31.942 17-14.358 0-26.881-7.86-33.5-19.513" stroke="#929292" stroke-width="2"/><path d="M104.082 62.567l-5.31 7.205-5.31-7.205H100" stroke="#fff" stroke-width="2" stroke-linejoin="round"/><defs><filter id="filter0_b" x="-4" y="-4" width="131" height="131" filterUnits="userSpaceOnUse" color-interpolation-filters="sRGB"><feFlood flood-opacity="0" result="BackgroundImageFix"/><feGaussianBlur in="BackgroundImage" stdDeviation="2"/><feComposite in2="SourceAlpha" operator="in" result="effect1_backgroundBlur"/><feBlend in="SourceGraphic" in2="effect1_backgroundBlur" result="shape"/></filter></defs></svg>