<svg width="123" height="123" fill="none" xmlns="http://www.w3.org/2000/svg"><g filter="url(#filter0_b)"><circle cx="61.5" cy="61.5" r="61.5" fill="#19191B"/></g><path d="M68.44 47.905c.043-.105.081-.234.12-.362.135-.39.288-.807.446-1.2.082-.235.01-.436-.15-.62a1.025 1.025 0 00-.215-.22l-1.585-1.116c-.253-.188-.5-.161-.73.031a3.37 3.37 0 00-.41.399c-.225.215-.422.449-.641.687-.203.21-.439.283-.708.219-.483-.092-.95-.212-1.44-.327a.656.656 0 01-.429-.345c-.094-.197-.188-.394-.287-.614a12.62 12.62 0 00-.382-.908c-.193-.418-.408-.542-.853-.474-.62.105-1.218.205-1.81.328-.374.078-.527.302-.526.688.008.504.031.98.038 1.485.001.289-.097.55-.36.701-.4.252-.773.522-1.173.774-.197.137-.406.132-.631.059-.148-.042-.33-.125-.484-.189-.363-.165-.682-.34-1.033-.46-.28-.11-.555-.005-.725.247-.136.197-.273.394-.388.587-.25.39-.229.385-.458.77l-.3.664c-.005.266.16.472.342.651.303.299.562.606.86.882.27.257.37.573.299.95-.097.453-.173.902-.248 1.351a.574.574 0 01-.334.43c-.482.197-.96.417-1.442.614-.252.1-.367.293-.344.577.045.376.112.747.179 1.119.089.367.206.752.294 1.119m17.206-6.248c.417.01.857.014 1.274.024.445.028.615.161.727.62.156.642.29 1.288.423 1.935.062.349-.047.564-.355.724-.328.165-.668.283-1.003.425-.713.293-.806.385-.913 1.178-.043.297-.08.618-.146.92-.037.322.03.597.272.836.27.257.54.514.793.798.127.143.26.308.364.455.11.17.127.334.035.522l-1.05 1.663c-.049.083-.125.147-.18.207-.17.155-.362.22-.593.123-.39-.184-.802-.363-1.187-.524l-.38-.138a.615.615 0 00-.603.077c-.373.27-.751.517-1.107.76m-.766 2.833l-1.97.337c-.357.05-.522-.06-.698-.41a12.205 12.205 0 01-.504-1.22c-.15-.426-.436-.655-.848-.738-.434-.079-.873-.18-1.313-.282-.192-.032-.368.005-.5.128-.278.275-.574.577-.853.852-.077.064-.148.151-.225.215-.148.152-.328.261-.537.257l-.148-.042c-.028-.018-.033-.041-.061-.06-.578-.385-1.161-.794-1.76-1.175a.654.654 0 01-.299-.565c-.011-.142.037-.32.097-.453.12-.362.267-.706.414-1.05.164-.371.13-.701-.113-1.036a18.599 18.599 0 01-.695-1.06" stroke="#fff" stroke-width="2" stroke-miterlimit="10"/><path d="M52 32.867H42a4 4 0 00-4 4V79.5m35-46.633h11a4 4 0 014 4V39.5" stroke="#929292" stroke-width="2" stroke-miterlimit="10" stroke-linecap="round"/><path d="M38 83.5v5.007a4 4 0 004 4h42a4 4 0 004-4V43" stroke="#fff" stroke-width="2" stroke-miterlimit="10" stroke-linecap="round"/><path d="M46.938 71.311H79.09" stroke="#929292" stroke-width="2" stroke-miterlimit="10" stroke-linecap="round" stroke-linejoin="round"/><path d="M46.938 81.99h7.503" stroke="#929292" stroke-width="2" stroke-miterlimit="10" stroke-linecap="round"/><path d="M57.42 81.99h21.67m-32.152-5.677h12.297m3.44 0H79.09" stroke="#929292" stroke-width="2" stroke-miterlimit="10" stroke-linecap="round" stroke-linejoin="round"/><path d="M68.932 30.137v-.216A5.924 5.924 0 0063 24a5.925 5.925 0 00-5.932 5.92c0 .082 0 .163.028.217h-4.117v6.38h20.07v-6.38h-4.117z" stroke="#929292" stroke-width="2" stroke-miterlimit="10" stroke-linejoin="round"/><circle cx="62.5" cy="53.5" r="2.5" stroke="#fff" stroke-width="2"/><defs><filter id="filter0_b" x="-4" y="-4" width="131" height="131" filterUnits="userSpaceOnUse" color-interpolation-filters="sRGB"><feFlood flood-opacity="0" result="BackgroundImageFix"/><feGaussianBlur in="BackgroundImage" stdDeviation="2"/><feComposite in2="SourceAlpha" operator="in" result="effect1_backgroundBlur"/><feBlend in="SourceGraphic" in2="effect1_backgroundBlur" result="shape"/></filter></defs></svg>