<svg width="120" height="120" fill="none" xmlns="http://www.w3.org/2000/svg"><g filter="url(#filter0_b)"><circle cx="60" cy="60" r="60" fill="#19191B"/></g><path d="M53.8 78.546c.36-.062.72-.125 1.079-.203.344-.078.5-.266.516-.61.03-.64.046-1.281.046-1.922 0-.454-.14-.61-.578-.72-.406-.109-.828-.187-1.25-.28-.328-.079-.578-.235-.703-.564-.172-.469-.344-.922-.516-1.39a.596.596 0 01.063-.517c.062-.11.125-.219.203-.328.234-.344.484-.704.734-1.047.14-.204.125-.407 0-.61-.062-.078-.11-.172-.172-.235-.437-.469-.875-.922-1.312-1.375-.22-.22-.47-.235-.735-.11a5.279 5.279 0 00-.5.297c-.266.172-.531.36-.797.532a.76.76 0 01-.75.062c-.453-.203-.89-.406-1.344-.61a.6.6 0 01-.344-.406 34.199 34.199 0 01-.14-.64c-.063-.298-.11-.61-.172-.923-.094-.438-.282-.594-.735-.61a72.707 72.707 0 00-1.86-.031c-.39 0-.593.172-.687.547-.11.47-.22.938-.328 1.407a.785.785 0 01-.532.594c-.453.156-.906.328-1.344.5a.667.667 0 01-.64-.062c-.157-.078-.297-.188-.438-.282-.297-.203-.594-.437-.907-.625-.265-.172-.546-.125-.78.078l-.517.47-.984.984c-.047.063-.078.125-.031.14-.047.267.062.486.187.689.203.328.407.672.625 1 .219.313.25.626.078.97-.187.406-.375.828-.562 1.234a.613.613 0 01-.438.344c-.531.11-1.047.22-1.578.313-.281.063-.453.219-.485.484-.046.36-.078.735-.093 1.095-.016.375 0 .75.015 1.125 0 .25.125.422.344.485.39.125.797.219 1.188.313.156.047.312.078.469.125m15.22 2.954c.204.297.407.61.595.907.094.156.172.328.25.516.062.172.047.36-.094.5-.484.453-.953.922-1.438 1.376-.062.062-.156.11-.234.156-.203.125-.407.14-.61 0-.343-.25-.703-.485-1.047-.735a3.746 3.746 0 00-.328-.203.694.694 0 00-.61-.062c-.421.171-.859.344-1.28.5a.763.763 0 00-.485.578c-.094.407-.188.829-.282 1.235a1.543 1.543 0 01-.078.25c-.11.329-.281.47-.625.47a44.919 44.919 0 01-2.031-.079c-.36-.015-.516-.172-.579-.516a29.732 29.732 0 01-.218-1.25c-.047-.438-.266-.72-.672-.876l-1.22-.516c-.187-.078-.359-.078-.53.032-.344.218-.704.437-1.048.656-.093.047-.172.11-.265.157a.932.932 0 01-.61.14c-.047-.031-.094-.047-.14-.078-.016-.016-.032-.047-.047-.063-.485-.484-.97-.984-1.454-1.453a.613.613 0 01-.172-.594c.032-.141.11-.297.203-.422.204-.313.422-.61.657-.907m8.407-6.753c-1.312-.641-2.86-.079-3.5 1.235-.531 1.078-.172 2.782 1.25 3.454 1.282.626 2.86.078 3.47-1.203" stroke="#929292" stroke-width="2" stroke-miterlimit="10"/><path d="M81.88 71.203a8.877 8.877 0 00-9.526-2.623l-.095-.107-17.82-20.088a3.999 3.999 0 00-.399-.38c1.556-3.135 1.124-7.06-1.378-9.88-2.44-2.75-6.166-3.656-9.391-2.614l5.433 6.125-5.242 4.65-5.418-6.107a8.932 8.932 0 001.475 9.636 8.985 8.985 0 009.646 2.547c.094.14.187.281.33.442l9.699 10.822m2.144 2.68l5.992 6.604.048.053a8.93 8.93 0 001.343 9.912c2.439 2.75 6.166 3.656 9.39 2.614l-5.432-6.125 5.242-4.65 5.433 6.125a8.898 8.898 0 00.455-6.125" stroke="#fff" stroke-width="2" stroke-miterlimit="10" stroke-linecap="round" stroke-linejoin="round"/><path d="M65.09 35.216h13.4m3.753 0h2.144M65.09 45.937h13.4m3.753 0h2.144M65.09 40.576h3.216m4.288 0h11.793M65.09 51.297h8.576m4.289 0h6.432" stroke="#929292" stroke-width="2" stroke-linecap="round"/><defs><filter id="filter0_b" x="-4" y="-4" width="128" height="128" filterUnits="userSpaceOnUse" color-interpolation-filters="sRGB"><feFlood flood-opacity="0" result="BackgroundImageFix"/><feGaussianBlur in="BackgroundImage" stdDeviation="2"/><feComposite in2="SourceAlpha" operator="in" result="effect1_backgroundBlur"/><feBlend in="SourceGraphic" in2="effect1_backgroundBlur" result="shape"/></filter></defs></svg>