<svg version="1.0" xmlns="http://www.w3.org/2000/svg" width="341.333" height="341.333" viewBox="0 0 256 256"><path d="M113.5.6c-31.6 4.8-54.3 16-75.6 37.3C19.1 56.7 8 77 2.4 103c-2.6 11.9-2.6 38.1 0 50 5.6 25.9 18.1 48.9 36.3 66.7 15 14.6 24.2 18.8 39.7 18.1 7.4-.4 10.1-.9 14.4-3.2 15.7-8 25.3-24.6 30.9-52.9 1.3-6.6 1.7-15.8 1.8-47.7.1-33.3.4-41.1 1.9-49.5 1.4-8.1 6.3-25 9.3-32.4.5-1.2-1.7-1.3-13.3-.9-27.6 1.1-45.1 8.1-59.7 23.8C52.8 86.8 48 99.4 48 116.1c0 16.4 5.4 28.7 17.4 39.7 6 5.4 18.3 11.9 26.7 14.2l4.6 1.2-1.1 5.1c-1.2 5.2-1.2 5.2-4.9 5-4.9-.3-17.2-5.3-24.3-9.8-12.7-8.1-22.2-20-27.1-34-2.5-7.3-2.8-9.2-2.8-22 0-12.7.3-14.7 2.8-22 9.5-27.1 31.3-45.1 63.3-52.1 5.6-1.2 12.7-1.7 24.4-1.8l16.5-.1 7.5-7.6c11-11.1 27.1-18.6 35.4-16.5 2.6.6 21.1 12.5 20.4 13.1-.2.2-2.6-.3-5.3-1.1-7.8-2.4-19.8-1.4-27.7 2.3-5.7 2.7-16.8 11.4-16.8 13.2 0 .4 2.1 1.2 4.6 1.9 12.7 3.4 28.9 14.1 37.9 24.9 10.8 13 16.5 29 16.5 46.3 0 12.1-2.2 21.5-7.7 33-3.7 7.6-6 10.9-11.7 16.6-3.9 3.9-9.9 8.6-13.2 10.4l-6.1 3.4 4.8 6.3c6.2 8.1 10.9 17.9 16 33.4 2.2 6.8 4.2 12.5 4.3 12.7.6.5 11.2-8.2 16.9-14.1 16.7-16.9 29-40.1 34.3-64.7 2.6-11.9 2.6-38.1 0-50-9.7-44.7-40.5-80.2-82.6-95.5-13.4-4.8-23.4-6.6-39.5-7-8.2-.2-16.3-.1-18 .1z"/><path d="M146.3 59.7c-3.5 8-7 22.2-8.2 33.9-.6 5.5-1 25.2-.9 44.4.2 31.6.1 35.5-1.9 46-5.1 26.9-15.2 46.1-29.7 56.4-5.4 3.9-8.3 5.3-16.1 8.1-1.7.6-1.5.9 1.7 2 14.6 5.3 44.8 6.8 61.6 3.2 11-2.4 23.1-6.6 31.9-11l7.1-3.6-3.5-10.8c-7.9-24.7-14.1-36.3-22-41.3-2.7-1.7-6.1-3-7.9-3-2.9 0-3.2-.3-3.8-3.7-1.2-7.7-1.2-7.7 6.2-9.1 21-4 37.3-20 41.7-40.9 7-32.9-10.9-62.9-44.2-74.4-8.5-2.9-9.1-2.7-12 3.8z"/></svg>