<svg width="186" height="167" fill="none" xmlns="http://www.w3.org/2000/svg"><path d="M98.708 113.341c.686-7.546 2.676-24.284 5.145-30.87 2.47-6.585 8.118-13.49 10.633-16.12-1.372-3.544-4.528-11.936-6.174-17.15-2.058-6.517-2.771-7.727-4.459-13.034-1.589-4.998-.864-9.446-.352-11.362a85.606 85.606 0 00-.973-.986c-2.209-.53-6.99-1.953-8.436-3.399-1.807-1.808-5.423-9.64-4.82-9.64.602 0 4.7-.603 9.64-1.809 4.941-1.205 17.04-8.435 25.911-7.833 8.871.603 15.064 3.616 18.68 6.026 3.615 2.41 9.641 7.833 8.435 17.474-.964 7.713-2.41 14.06-3.012 16.27l-1.544 4.632c.075.684.165 1.34.272 1.96.244 1.418 2.22 3.22 2.41 4.218l5.238 1.942 3.773 9.604c7.775 1.943 23.909 12.916 24.732 25.813.824 12.896-1.807 43.384-6.896 62.337l-71.686-12.005-6.517-26.068z" fill="url(#paint0_linear)"/><path d="M84.306 161.725l2.56 2.56-53.634 1.537L12.623 138.3" stroke="#19191B" stroke-width="2" stroke-miterlimit="10" stroke-linecap="round" stroke-linejoin="round"/><path d="M52.007 142.672l-5.974.396 11.125 12.482 11.775-1.104-4.784-5.519m-36.805-8.451l12.16-.256 18.433 20.993-24.705.768m0 3.84l-12.16-49.282L1.23 96.954 12.623 138.3l20.609 27.521zm82.429-98.947c-18.029 7.36-16.378 46.72-16.378 46.72l-3.123 2.217-2.943 1.84s-8.83 5.151-8.83 7.727m48.945-45.322s8.193-4.352 12.929-10.752c5.248-6.913 9.728-14.977 9.728-14.977l-6.528-2.944m-22.694 20.68l-.091-5.83s-5.248 2.175-8.448 1.791c-3.2-.511-7.908-9.77-9.297-14.826-1.389-5.056-2.223-10.977-4.4-15.767 0 0-3.584-11.392-.64-13.184M152.277 60.6c-1.408-2.432-1.664-5.888-2.816-9.088" stroke="#19191B" stroke-width="2" stroke-miterlimit="10" stroke-linecap="round" stroke-linejoin="round"/><path d="M112.211 41.527l-1.152 10.88 6.401-1.28m15.872 28.93s2.352 9.472 5.504 9.472c3.152 0 14.977-13.44 17.665-19.329l2.688-6.016-3.2-9.728" stroke="#19191B" stroke-width="2" stroke-miterlimit="10" stroke-linecap="round" stroke-linejoin="round"/><path d="M158.677 87.481l-4.992 43.266c0 6.73-11.263 8.309-23.674 10.453-11.907 2.057-24.871 4.791-29.96 5.804 0 0-18.177-2.432-19.585-2.048-1.536.512-5.632 4.352-7.168 5.632-1.537 1.28-7.553 6.912-6.529 8.32 1.024 1.536 5.248-2.048 5.248-2.048s-3.712 5.248-1.663 4.736c2.048-.512 4.48-3.328 4.48-3.328l3.84-2.432s-4.736 6.144-3.2 5.888c1.536-.256 4.224-2.176 4.224-2.176l1.792-1.024s-3.2 3.2-1.536 3.712c1.792.512 5.504-3.456 5.504-3.456l3.2-2.048s2.688 1.792 6.913.512c4.224-1.28 7.168-2.432 7.168-2.432s60.163 5.504 64.131 4.224c3.968-1.28 7.808-1.536 8.96-3.712.512-1.152 13.953-54.53 6.272-72.323-7.68-17.793-22.913-18.945-22.913-18.945" stroke="#19191B" stroke-width="2" stroke-miterlimit="10" stroke-linecap="round" stroke-linejoin="round"/><path d="M123.988 142.139l-23.937 4.736 11.136-2.176c1.792 1.792 3.84 5.121 4.096 11.265 3.584.256 7.809.64 12.161 1.024" stroke="#19191B" stroke-width="2" stroke-miterlimit="10" stroke-linecap="round" stroke-linejoin="round"/><path d="M111.187 144.7l-11.136 2.176s-18.177-2.432-19.585-2.048c-1.536.512-5.632 4.352-7.168 5.632-1.537 1.28-7.553 6.912-6.529 8.32 1.024 1.536 5.248-2.048 5.248-2.048s-3.712 5.248-1.663 4.736c2.048-.512 4.48-3.328 4.48-3.328l3.84-2.432s-4.736 6.144-3.2 5.888c1.536-.256 4.224-2.176 4.224-2.176l1.792-1.024s-3.2 3.2-1.536 3.712c1.792.512 5.504-3.456 5.504-3.456l3.2-2.048s2.688 1.792 6.913.512c4.224-1.28 7.168-2.432 7.168-2.432s5.12.512 12.544 1.152c-.256-6.016-2.304-9.472-4.096-11.136zm-29.825 13.824s4.352-4.48 6.144-5.12m-8.832 2.432s4.48-4.992 6.272-5.504m-13.056 6.4s7.04-8.064 9.6-9.088m2.816-22.017l-5.632 7.168s-17.28.64-20.225 1.28c-2.944.768-6.656 9.345-6.656 11.009 0 1.792 1.792 1.536 2.56.384.896-1.152 3.456-6.529 3.456-6.529s-2.944 8.449-2.944 9.345c0 .896 1.92 0 1.92 0s-.128 1.792.896 2.176c1.024.384 3.328-1.024 3.328-1.024s.64 1.152 2.304.128c1.792-1.024 6.016-7.809 7.168-8.577 1.153-.768 4.48-.128 4.48-.128s-3.327 1.536-4.608 4.353c-1.28 2.816-1.023 3.584-.127 3.328.896-.256 3.84-3.2 5.504-4.096 1.792-.896 6.144-.64 7.424-1.152 1.28-.64 13.057-6.913 13.057-6.913s-.128-6.528-4.096-9.216c-3.969-2.688-7.809-1.536-7.809-1.536z" stroke="#19191B" stroke-width="2" stroke-miterlimit="10" stroke-linecap="round" stroke-linejoin="round"/><path d="M90.067 139.708c3.2-1.664 6.144-3.328 6.144-3.328s-.128-6.529-4.096-9.217c-3.968-2.56-7.809-1.536-7.809-1.536l-3.584 4.48m-2.176 2.56s4.352-.256 5.632 2.945m-27.393 12.672l5.376-11.649m-1.152 12.801l4.992-12.033m-8.192 1.537l1.408-2.688m73.987-107.141c.785 2.54 1.73 5.027 2.56 7.552l4.353-1.152c-1.665-2.688-1.665-7.04 1.408-8.448 2.734-1.253 5.632-.128 5.632 5.12 0 3.067-1.131 6.803-3.532 7.832-.343 2.401.844 4.585.844 4.585s2.432 2.944 2.944 1.792c.512-1.28 12.16-28.545-3.072-38.274-10.497-6.656-22.785-8.96-35.714-2.688-12.928 6.272-19.457 5.76-19.457 5.76s-.06 5.47 4.415 8.956c4.972 3.873 7.727 4.24 12.259 4.24 6.174-.342 19.424-1.291 23.904 1.14 2.507 1.261 3.097 2.422 3.456 3.585z" stroke="#19191B" stroke-width="2" stroke-miterlimit="10" stroke-linecap="round" stroke-linejoin="round"/><path d="M149.062 51.483l-1.715-5.145" stroke="#19191B" stroke-width="2"/><path d="M116.435 58.168c2.305 0 4.609-.512 6.785-1.28" stroke="#19191B" stroke-width="2" stroke-miterlimit="10" stroke-linecap="round" stroke-linejoin="round"/><path d="M122.196 42.807a1.28 1.28 0 100-2.56 1.28 1.28 0 000 2.56zm-12.929 1.664a1.28 1.28 0 100-2.56 1.28 1.28 0 000 2.56z" fill="#19191B"/><path d="M116.477 38.246c2.048-1.92 5.12-2.304 7.936-2.176m-18.346 4.69c1.536-.897 3.328-1.409 5.12-1.665m-83.843 98.309c.384 0 26.113-.384 26.113-.384M114.9 86.073c-1.152 5.889-.384 11.905-.128 17.793.128 4.48-.128 8.833-.512 13.313-.512 7.04-.896 14.08-1.408 20.993m-16.324-1.387c2.944 3.311 16.43-5.76 16.558-5.888m44.055 4.714c2.432 2.56 5.761 4.097 7.937 6.913 1.152 1.408 1.92 3.072 2.688 4.736" stroke="#19191B" stroke-width="2" stroke-miterlimit="10" stroke-linecap="round" stroke-linejoin="round"/><path d="M76.433 115.234c1.834 1.125 4.202.509 5.293-1.373 1.091-1.882.485-4.32-1.355-5.438-.093-.06-.193-.107-.293-.154.385-1.065.678-2.143.892-3.235.107.013.214.02.32.02 2.14.027 3.895-1.728 3.917-3.924.021-2.19-1.69-3.985-3.83-4.005-.115 0-.222.006-.329.013a21.369 21.369 0 00-.813-3.255c.1-.047.2-.094.3-.154 1.861-1.078 2.525-3.502 1.476-5.404-1.048-1.903-3.402-2.566-5.257-1.487a2.336 2.336 0 00-.27.18 20.582 20.582 0 00-2.283-2.384 3.86 3.86 0 00.178-.28c1.084-1.89 2.49-3.932.642-5.004-4.265-2.478-6.177-.864-7.254 1.018a2.85 2.85 0 00-.15.295 20.291 20.291 0 00-3.124-.884c.008-.107.022-.221.022-.328.028-2.177.713-3.295-1.398-3.53-4.6-.509-6.213 1.326-6.234 3.496 0 .114.007.228.014.335a20.263 20.263 0 00-3.124.85c-.043-.1-.093-.2-.143-.3-1.027-1.883-3.338-2.539-5.163-1.46-1.826 1.078-2.468 3.469-1.448 5.35.05.094.107.188.17.275a21.005 21.005 0 00-2.289 2.337c-.085-.06-.171-.127-.264-.18-1.79-1.092-4.108-.47-5.17 1.4-1.064 1.861-.472 4.259 1.319 5.357.092.053.185.107.285.154a22.381 22.381 0 00-.87 3.195c-.107-.007-.207-.02-.314-.02-2.083-.02-3.78 1.714-3.809 3.87-.028 2.157 1.64 3.932 3.716 3.952.107 0 .214-.007.321-.014a22.69 22.69 0 00.792 3.215 6.68 6.68 0 00-.293.147c-1.811 1.058-2.46 3.443-1.44 5.331 1.02 1.889 4.557 3.088 6.376 2.03.093-.054-1.055-.637-.97-.697a21.271 21.271 0 002.24 2.384 3.697 3.697 0 00-.178.275c-1.07 1.862-.478 4.266 1.326 5.384 1.798 1.119 4.13.516 5.2-1.346.057-.094.107-.194.15-.294 1.02.395 2.061.703 3.102.924-.007.107-.021.221-.021.328-.029 2.176 1.662 3.971 3.766 4.005 2.111.04 3.844-1.695 3.866-3.871a5.07 5.07 0 00-.014-.335 20.431 20.431 0 003.145-.81c.043.1.093.201.143.301 1.034 1.909 3.38 2.598 5.228 1.54 1.854-1.058 2.51-3.469 1.47-5.384-.05-.101-.115-.188-.172-.281a20.767 20.767 0 002.332-2.338c.086.087.179.148.271.208z" stroke="#A6A6A6" stroke-width="2" stroke-miterlimit="10"/><path d="M78.431 115.662c1.833 1.126 4.208.509 5.3-1.372 1.09-1.882.485-4.32-1.356-5.439-.092-.06-.192-.107-.292-.154.385-1.064.677-2.143.892-3.234.107.013.214.02.32.02 2.14.027 3.902-1.735 3.923-3.925.022-2.197-1.69-3.991-3.83-4.011-.114 0-.22.006-.328.013a21.175 21.175 0 00-.813-3.255c.1-.047.2-.094.3-.154 1.861-1.078 2.525-3.502 1.476-5.411-1.048-1.902-3.41-2.572-5.264-1.487a2.36 2.36 0 00-.27.18 20.082 20.082 0 00-2.29-2.383 4.21 4.21 0 00.178-.282c1.084-1.888.485-4.313-1.348-5.411-1.826-1.098-4.187-.462-5.271 1.427a2.86 2.86 0 00-.15.294 20.16 20.16 0 00-3.131-.884c.007-.107.021-.22.021-.328.029-2.177-1.669-3.951-3.78-3.958-2.111-.007-3.838 1.748-3.866 3.924 0 .114.007.228.014.335a20.494 20.494 0 00-3.131.85c-.043-.1-.093-.2-.143-.3-1.027-1.882-3.345-2.539-5.17-1.46-1.827 1.078-2.476 3.475-1.449 5.357.05.094.107.188.172.275a21.168 21.168 0 00-2.297 2.344c-.086-.06-.171-.127-.271-.18-1.798-1.093-4.116-.47-5.179 1.399-1.062 1.862-.47 4.266 1.32 5.358.093.053.185.107.285.154a22.211 22.211 0 00-.87 3.2c-.107-.006-.207-.02-.314-.02-2.083-.02-3.787 1.715-3.816 3.878-.028 2.164 1.64 3.932 3.724 3.958.107 0 .214-.006.32-.013.186 1.092.45 2.17.792 3.215a5.71 5.71 0 00-.292.147c-1.819 1.051-2.461 3.436-1.441 5.324 1.02 1.889 3.324 2.565 5.143 1.514.092-.054.178-.114.27-.174a20.224 20.224 0 002.247 2.384c-.064.087-.12.181-.178.275-1.07 1.861-.478 4.272 1.327 5.384 1.804 1.118 4.137.516 5.207-1.346.057-.094.107-.194.15-.295a20.09 20.09 0 003.11.924c-.008.108-.022.221-.022.329-.029 2.176 1.662 3.971 3.773 4.011 2.111.04 3.845-1.694 3.873-3.877 0-.114-.007-.228-.014-.335a20.733 20.733 0 003.152-.811c.043.101.093.201.15.302 1.041 1.908 3.381 2.598 5.236 1.54 1.854-1.058 2.517-3.469 1.469-5.384-.05-.101-.114-.188-.171-.282a21.496 21.496 0 002.34-2.344c.078.074.17.141.263.194zm-23.081-2.089c-6.548-4.032-8.702-12.778-4.822-19.556 3.888-6.79 12.382-9.081 18.987-5.083 6.634 4.018 8.83 12.832 4.886 19.663-3.937 6.811-12.468 9.028-19.051 4.976zM38.463 70.834c.924.55 2.122.249 2.673-.672a1.934 1.934 0 00-.831-2.735c.194-.52.341-1.048.45-1.582a1.95 1.95 0 002.14-1.91 1.944 1.944 0 00-1.932-1.961c-.058 0-.112.003-.166.006-.093-.54-.23-1.074-.41-1.591.05-.023.101-.046.151-.076a1.94 1.94 0 00.745-2.646 1.95 1.95 0 00-2.655-.727 1.18 1.18 0 00-.136.088 9.952 9.952 0 00-1.155-1.166 1.921 1.921 0 00-.59-2.784 1.952 1.952 0 00-2.734.842 10.41 10.41 0 00-1.58-.433c.004-.052.012-.108.012-.16a1.91 1.91 0 00-1.907-1.936 1.947 1.947 0 00-1.95 1.92c0 .055.004.11.008.163a10.65 10.65 0 00-1.58.416c-.021-.049-.046-.098-.071-.147a1.904 1.904 0 00-2.608-.714 1.933 1.933 0 00-.73 2.62.87.87 0 00.086.134c-.41.348-.799.73-1.159 1.147-.043-.03-.086-.062-.136-.089a1.906 1.906 0 00-2.612.685 1.917 1.917 0 00.81 2.696 10.611 10.611 0 00-.44 1.565c-.053-.003-.104-.01-.158-.01a1.915 1.915 0 00-1.924 1.897 1.905 1.905 0 001.877 1.936c.054 0 .108-.004.162-.007.094.534.227 1.061.4 1.572-.05.023-.098.046-.148.072a1.915 1.915 0 00-.726 2.604 1.904 1.904 0 002.593.74c.047-.026.09-.055.137-.085.341.413.72.806 1.133 1.166a1.926 1.926 0 00.58 2.768 1.906 1.906 0 002.7-.802c.515.193 1.04.343 1.569.452-.004.052-.01.108-.01.16a1.94 1.94 0 001.902 1.962 1.918 1.918 0 001.946-2.06c.54-.092 1.069-.223 1.59-.397a1.95 1.95 0 002.716.9 1.924 1.924 0 00.741-2.632c-.025-.05-.057-.092-.086-.138.417-.347.813-.73 1.18-1.146.04.036.086.069.133.095zm-11.64-1.022c-3.303-1.972-4.39-6.25-2.433-9.564 1.96-3.322 6.245-4.442 9.576-2.486a6.996 6.996 0 012.464 9.616 7.005 7.005 0 01-9.608 2.434z" fill="#fff" stroke="#A6A6A6" stroke-width="2" stroke-miterlimit="10"/><path d="M132.047 79.951s-3.43 9.261-5.145 9.261c-1.715 0-3.842-7.752-4.116-11.319-.275-3.567-.115-9.032.343-10.29m8.917 12.692s-5.145-2.401-5.488-8.232" stroke="#19191B" stroke-width="2"/><defs><linearGradient id="paint0_linear" x1="136.438" y1="115.399" x2="136.438" y2="50.573" gradientUnits="userSpaceOnUse"><stop stop-color="#fff" stop-opacity="0"/><stop offset=".671" stop-color="#fff"/></linearGradient></defs></svg>