<svg width="155" height="159" fill="none" xmlns="http://www.w3.org/2000/svg"><path d="M70.554 88.7c-.229-3.322.963-10.585 7.562-13.06 6.599-2.474 16.039-5.613 19.934-6.874v-2.75c-3.552-.228-13.327-2.16-15.466-6.631-1.393-2.91-2.293-6.523-2.55-10.311v12.029c-.002.077-.004.07-.006-.007-9.447-11.316-3.797-21.161-.789-26.02-.824-3.017-2.026-8.127-1.586-9.448.603-1.808 3.616-12.051 7.834-15.667 3.374-2.892 8.636-4.82 10.846-5.423h1.205c2.659-2.008 10.117-5.423 18.679-3.012 10.703 3.012 16.872 10.243 17.475 13.859.602 3.615 4.82 11.448 5.423 12.05.602.604 4.218 7.834 4.218 10.244 0 1.372.203 3.765.393 5.658.469.71.744 1.37.723 1.956-.344 9.623-6.874 10.998-9.624 12.03-3.093 4.467-11.227 6.746-15.81 8.694.344 1.273 1.375 2.75 2.406 3.678 4.468 1.719 14.779.344 18.56 5.945 6.186 5.054 15.466 43.547 13.747 52.929-2.042 11.152-6.186 19.935-17.528 21.309-9.074 1.1-40.9 3.437-55.678 4.468-1.146-19.819-3.644-60.077-4.469-62.552-1.03-3.093-2.749-3.093-5.498-3.093z" fill="url(#paint0_linear)"/><path d="M97.019 68.767c-9.28 1.718-27.152 6.53-26.465 20.621" stroke="#19191B" stroke-width="2"/><path d="M98.44 66.168c-5.4-.587-11.151-2.23-14.672-6.69-1.643-1.995-2.582-4.46-2.582-7.042 0-3.052 1.29-5.986 1.76-8.92a38.82 38.82 0 00.352-10.446c-.117-.705-1.29-.822-1.173 0 .352 3.403.352 6.807-.353 10.094-.586 3.169-1.878 6.22-1.878 9.39 0 5.398 3.991 9.976 8.686 12.206 3.052 1.408 6.338 2.113 9.624 2.582 1.057.118 1.057-1.056.235-1.174z" fill="#19191B" stroke="#000"/><path d="M77.547 29.431c1.409 5.047-1.643 9.977-2.817 14.79-1.056 4.107-.821 8.567.94 12.44 1.056 2.113 2.464 4.108 4.342 5.517.587.47 1.174-.117.94-.704-1.527-3.756-1.761-7.864-.47-11.737.234-.705-.94-1.057-1.174-.352-1.409 4.108-1.057 8.568.587 12.676.352-.235.587-.47.939-.705-3.404-2.582-5.282-6.572-5.634-10.798-.235-2.23.117-4.46.704-6.573.704-2.347 1.643-4.694 2.347-7.042.705-2.582 1.057-5.164.353-7.864-.118-.704-1.291-.352-1.057.352zM98.674 4.783c4.108-2.817 9.39-3.404 14.202-2.7 4.93.587 9.859 2.465 13.615 5.869 4.46 3.99 6.808 9.86 9.507 15.14.705 1.41 1.409 2.818 2.23 4.109.822 1.291 1.644 2.582 2.348 3.99 1.526 2.817 2.699 5.752 3.169 8.92.469 2.935.352 5.987-.587 8.804-.939 2.934-3.052 5.281-5.634 6.925-.704.352-.117 1.408.587 1.056 2.465-1.409 4.46-3.521 5.634-6.103 1.174-2.465 1.526-5.282 1.408-8.099-.117-3.169-.939-6.103-2.112-9.038-1.291-3.051-3.169-5.75-4.695-8.685-3.052-5.751-5.282-11.972-9.742-16.784-3.521-3.756-8.568-6.104-13.615-7.043C109.355.088 103.017.44 98.087 3.727c-.587.47 0 1.408.587 1.056zm17.02 50.822c-2.113 2.113-4.578 3.639-7.395 4.695-1.174.47-2.465.822-3.638 1.174-1.409.352-2.817.939-4.226 1.056-2.934.235-4.93-1.878-6.925-3.756-1.878-1.643-3.52-3.873-4.695-6.103-1.408-2.582-1.525-5.517-1.643-8.45 0-1.527-.117-2.935-.234-4.461 0-.47-.118-.822-.118-1.174-.235-3.286-.352-6.572-.117-9.859.117-1.76.117-3.756.821-5.399.705-1.76 1.76-3.639 3.287-4.812.587-.47-.235-1.291-.822-.822-1.29 1.056-2.23 2.582-3.052 4.108-.821 1.76-1.173 3.404-1.29 5.282-.353 3.638-.118 7.394 0 11.15.117 1.76.352 3.521.469 5.282.117 3.052.117 6.103 1.408 8.92 1.057 2.465 2.817 4.812 4.695 6.69.94.94 1.996 1.76 2.934 2.7 1.057.822 2.23 1.643 3.639 1.878 1.643.352 3.169-.118 4.812-.587 1.526-.352 3.052-.822 4.46-1.291 3.169-1.174 6.104-2.817 8.569-5.165.469-.821-.353-1.643-.939-1.056z" fill="#19191B" stroke="#000"/><path d="M80.482 35.887c-1.409-3.521-1.996-7.277-1.644-11.15.235-2.935 1.174-5.517 2.465-8.1 1.878-3.99 4.695-7.628 8.568-9.74 2.935-1.527 6.221-2.114 9.507-1.996.822 0 .822-1.174 0-1.174-5.75-.117-11.267 1.878-15.14 6.22-1.526 1.644-2.7 3.522-3.756 5.517-1.291 2.465-2.348 5.165-2.7 7.864-.704 4.343-.117 8.803 1.526 12.911.235.587 1.408.352 1.174-.352z" fill="#19191B" stroke="#000"/><path d="M85.06 14.173c4.929 2.23 7.276 7.629 10.798 11.502 1.877 2.113 4.342 3.756 6.924 4.93a23.019 23.019 0 003.991 1.408c1.174.235 2.348.587 3.521.47 1.174 0 2.465-.235 3.639-.352.939-.118 1.995-.235 2.934-.704.352-.118.352-.705.117-.94-2.23-2.112-5.633-4.577-5.633-7.863-.352.117-.705.234-1.174.352 1.526 1.995 3.169 3.873 5.516 4.93 2.348 1.056 5.047 1.173 7.512 1.525.352 0 .939-.235.704-.704-.821-2.113-1.056-4.108-1.173-6.338-.118-2.23-.587-4.343-1.409-6.455-.939-2.348-1.878-4.46-3.521-6.339-1.408-1.643-3.169-3.051-5.164-3.99-2.23-1.174-4.578-1.878-7.043-2.23-.821-.118-.704 1.056 0 1.173a17.952 17.952 0 0111.151 5.634c1.643 1.76 2.582 3.873 3.521 6.104.821 1.995 1.291 3.99 1.408 6.103.118 2.347.47 4.46 1.291 6.69l.705-.704c-2.348-.352-4.93-.47-7.16-1.409-2.23-.821-3.873-2.7-5.282-4.577-.352-.47-1.173-.352-1.173.352.117 3.756 3.521 6.455 5.985 8.803 0-.352.118-.587.118-.94-.704.353-1.643.47-2.465.588-1.056.117-2.113.352-3.169.352-2.465.117-5.047-.704-7.277-1.76-2.465-1.174-4.812-2.7-6.69-4.813-1.76-1.995-3.17-4.108-4.812-6.22-1.761-2.23-3.639-4.226-6.221-5.4-.587-.587-1.174.47-.47.822z" fill="#19191B" stroke="#000"/><path d="M113.698 28.257s5.282 3.521 5.282 13.967c0 8.1-2.113 9.508-2.935 13.85-.352 1.291-.352 2.583-.117 3.874.117 1.29.47 2.7.587 4.342.117.47.117 1.057.587 1.291.352.235.939.235 1.408.118 3.404-.704 6.69-1.526 9.742-3.17 3.052-1.642 6.456-4.225 7.747-7.394.821-1.995 1.408-4.46 1.525-6.69" stroke="#19191B" stroke-width="2" stroke-miterlimit="10" stroke-linecap="round" stroke-linejoin="round"/><path d="M94.802 37.764c.821 0 .821-1.173 0-1.173-.822 0-.822 1.173 0 1.173z" fill="#19191B"/><path d="M94.215 37.06c-.235 1.996-.587 3.991-1.291 5.987-.235.47-.587 1.056-.587 1.643s.352 1.056.939 1.29c1.174.47 2.465.588 3.638.588.822 0 .822-1.174 0-1.174-1.056 0-2.112-.117-3.051-.47-.235-.117-.353-.117-.235-.352l.352-.704c.235-.47.352-.939.47-1.408.469-1.644.704-3.287.938-5.047 0-.352-.117-.587-.469-.704-.235-.235-.704 0-.704.352z" fill="#19191B" stroke="#000"/><path d="M103.415 58.586c1.279-.466 2.082-1.486 1.794-2.277-.289-.792-1.56-1.056-2.839-.59-1.279.466-2.082 1.486-1.793 2.277.288.792 1.559 1.056 2.838.59z" fill="#A6A6A6"/><path d="M80.247 149.267s-9.037-1.526-12.793-.821c-3.756.821-9.038 1.995-8.92 5.047h21.713" stroke="#19191B" stroke-width="2" stroke-miterlimit="10" stroke-linecap="round" stroke-linejoin="round"/><path d="M121.914 157.366H9.472a1.303 1.303 0 01-1.29-1.291v-1.409c0-.704.586-1.291 1.29-1.291h112.442c.705 0 1.292.587 1.292 1.291v1.409c.117.704-.47 1.291-1.292 1.291z" fill="#fff" stroke="#19191B" stroke-width="2" stroke-miterlimit="10" stroke-linecap="round" stroke-linejoin="round"/><path d="M78.721 157.366H9.941c-.939 0-1.76-.939-1.76-2.23L3.369 92.225c-.118-1.526.704-2.817 1.76-2.817h69.367c.939 0 1.76.939 1.76 2.23l4.108 62.911c.235 1.526-.587 2.817-1.643 2.817z" fill="#fff" stroke="#19191B" stroke-width="2" stroke-miterlimit="10" stroke-linecap="round" stroke-linejoin="round"/><path d="M76.492 157.366H7.712c-.94 0-1.76-.939-1.76-2.23L1.138 92.225c-.117-1.526.704-2.817 1.76-2.817h69.367c.94 0 1.76.939 1.76 2.23l4.109 62.911c.234 1.526-.587 2.817-1.644 2.817z" fill="#fff" stroke="#19191B" stroke-width="2" stroke-miterlimit="10" stroke-linecap="round" stroke-linejoin="round"/><path d="M95.389 52.436c1.995.47 4.225.235 6.103-.822" stroke="#19191B" stroke-width="2" stroke-miterlimit="10" stroke-linecap="round" stroke-linejoin="round"/><path d="M103.957 38.117a.939.939 0 10-.001-1.877.939.939 0 00.001 1.877zm-13.615 0a.939.939 0 100-1.878.939.939 0 000 1.878z" fill="#19191B"/><path d="M100.318 35.534c.352-.587.939-.939 1.643-1.056.587-.235 1.292-.235 1.996-.235 1.173 0 2.582.117 3.404 1.056m-20.423.235c.352-.587.939-.939 1.643-1.056.587-.235 1.291-.235 1.995-.235 1.174 0 2.583.117 3.404 1.056" stroke="#19191B" stroke-width="2" stroke-miterlimit="10" stroke-linecap="round" stroke-linejoin="round"/><path d="M103.839 56.31s8.216-4.578 11.737-7.512c5.869-4.93 9.508-9.977 9.155-9.507" stroke="#A6A6A6" stroke-width="2" stroke-miterlimit="10"/><path d="M129.309 42.225c-3.286 0-5.986-3.521-5.986-7.982 0-4.46 2.7-7.98 5.986-7.98" stroke="#A6A6A6" stroke-width="2" stroke-miterlimit="10" stroke-linecap="round" stroke-linejoin="round"/><path d="M132.243 42.225c3.306 0 5.986-3.574 5.986-7.982s-2.68-7.98-5.986-7.98c-3.306 0-5.986 3.572-5.986 7.98s2.68 7.982 5.986 7.982zm-82.425 90.62c2.177-2.749 3.552-6.301 3.552-10.082 0-8.936-7.218-16.153-16.154-16.153s-16.153 7.217-16.153 16.153c0 8.937 7.217 16.154 16.153 16.154 2.062 0 4.01-.344 5.843-1.031l8.02 3.093-1.26-8.134z" stroke="#A6A6A6" stroke-width="2" stroke-miterlimit="10" stroke-linecap="round" stroke-linejoin="round"/><path d="M31.144 124.711a1.26 1.26 0 100-2.52 1.26 1.26 0 000 2.52zm5.843 0a1.26 1.26 0 100-2.52 1.26 1.26 0 000 2.52zm5.728 0a1.26 1.26 0 100-2.52 1.26 1.26 0 000 2.52z" stroke="#A6A6A6" stroke-width="2" stroke-miterlimit="10" stroke-linecap="round" stroke-linejoin="round"/><path d="M108.361 153.315c15.122 0 27.784-.847 36.775-7.905 14.468-11.356 6.917-34.417 2.062-54.647-4.124-17.185-10.654-20.622-23.371-20.622-.344-.343-4.468.688-4.468-4.468m5.156 24.747c1.833 10.539 5.705 32.032 6.53 33.681" stroke="#19191B" stroke-width="2"/><path d="M133.794 124.445c-7.217 4.125-16.84 8.712-24.402 11.342-7.905 2.75-13.175 5.27-14.091 5.499 1.374 1.261 2.955 5.018 2.406 11.342" stroke="#19191B" stroke-width="2"/><path d="M95.988 142.661c-2.406.917-7.767 2.887-9.967 3.437-2.2.55-5.04 2.291-6.187 3.093m41.244-79.394c-.688 5.27-8.881 14.436-15.467 14.436-6.873 0-6.874-6.187-6.874-13.405" stroke="#19191B" stroke-width="2"/><defs><linearGradient id="paint0_linear" x1="110.767" y1="60.862" x2="112.33" y2="154.347" gradientUnits="userSpaceOnUse"><stop stop-color="#fff"/><stop offset="1" stop-color="#fff" stop-opacity="0"/></linearGradient></defs></svg>