<svg width="205" height="192" fill="none" xmlns="http://www.w3.org/2000/svg"><path d="M69.41 44.2l.462.94 1.23-1.538c.603-1.205 1.929-3.977 2.41-5.423.603-1.807-.602-10.243 1.809-10.846 1.928-.482 3.213-.602 3.615-.602.402-.402 1.446-1.085 2.41-.603 1.205.603 3.013-.603 3.616 0 .602.602 3.615-1.808 4.82-1.808s1.205-.602 1.808 0c.482.482 4.62 5.423 6.628 7.834.603 0 1.808.12 1.808.602s.803.201 1.205 0c.803-2.41 2.29-7.23 1.808-7.23-.603 0-6.026-.603-7.834-1.808-1.446-.964-3.414-2.812-4.218-3.616 1.607-.803 5.303-2.53 7.231-3.012 2.41-.603 9.641-5.424 10.846-6.026 1.205-.603 10.846-4.218 13.859-3.013s8.436 4.82 9.039 5.423c.602.603 4.82 6.026 4.82 7.834 0 1.807 1.205 7.833.603 9.64-.603 1.808-3.013 7.231-4.218 8.436-.964.965-1.607 2.009-1.808 2.41.603.202 1.928.724 2.41 1.206.603.602 1.205 4.218 0 6.025-.964 1.447-2.41 2.611-3.012 3.013-.412.12-1.094.311-1.634.446l-1.116 8.088 1.976 10.21 5.929 2.185 17.126 3.952c2.306 2.525 7.707 8.168 10.869 10.54 3.952 2.964 29.516 28.982 29.516 36.887 0 6.324-22.71 29.203-34.786 38.865l-6.916-10.54 22.066-26.348-19.102-19.762c-.659 4.282-2.174 14.492-2.964 21.079-.791 6.587-2.525 33.485-3.294 46.11H85.564l2.92-78.716c-3.293-2.185-8.629 1.58-24.701 0-20.091-1.976-31.265-2.448-33.57-8.047-3.7-8.984 24.376-30.82 39.197-42.786z" fill="url(#paint0_linear)"/><path d="M75.32 55.051L55.437 74.936l9.641-.603c8.235-.2 24.826-.602 25.308-.602h3.013c2.41-.402 7.471-1.206 8.435-1.206.965 0 5.223-.803 7.231-1.205l.603-3.012c-1.004 0-3.375-.121-4.821-.603-1.807-.603-3.013-3.615-4.82-6.628-1.446-2.41-1.808-11.047-1.808-15.064l-2.41.602c-1.607 1.406-5.062 4.218-6.026 4.218H78.936l-4.218 2.41.603 1.808z" fill="#fff"/><path d="M101.119 25.52l-.029.562c-.255 2.093-.869 8.245-.869 8.245s-7.114 30.283 6.43 32.678c10.662 1.873 18.439-7.772 21.855-14.678 5.204.574 8.821-4.623 6.24-8.08-1.36-1.805-2.837-1.364-3.887-.747" stroke="#19191B" stroke-width="2" stroke-miterlimit="10" stroke-linecap="round" stroke-linejoin="round"/><path d="M106.826 38.24s1.433 3.53-2.834 9.582c0 0 3.659 1.058 5.673 1.432m-.492 5.937s3.73.56 6.743-1.817" stroke="#19191B" stroke-width="2" stroke-miterlimit="10" stroke-linecap="round" stroke-linejoin="round"/><path d="M105.555 39.012c-.179 2.908-2.332 5.06-4.914 4.8-2.44-.247-4.303-2.804-4.124-5.712.18-2.91 2.333-5.06 4.915-4.8 2.439.246 4.302 2.803 4.123 5.712zm12.949.054c-.179 2.909-2.332 5.06-4.914 4.8-2.439-.247-4.303-2.804-4.124-5.712.179-2.909 2.333-5.06 4.915-4.8 2.582.26 4.302 2.804 4.123 5.712z" fill="#fff" stroke="#19191B" stroke-width="2" stroke-miterlimit="10" stroke-linecap="round" stroke-linejoin="round"/><path d="M105.553 38.806s1.339-.89 4.045-.16m8.903-.197s7.623.46 10.021 1.45c.984.478 3.163 2.79 3.163 2.79" stroke="#19191B" stroke-width="2" stroke-miterlimit="10" stroke-linecap="round" stroke-linejoin="round"/><path d="M127.861 25.688s-19.816 7.149-39.768-7.465c0 0 6.341 1 12.767-3 8.964-5.581 26.443-9.697 33.089 3.699 0 0 10.441 10.96-1.816 22.305-1.527 1.334-3.889 6.93-3.889 6.93l-2.764.251s1.82-6.196 1.305-9.649c-.508-3.588-2.588-7.478 1.076-13.071zM76.692 50.782l1.65-1.026s11.078 1.477 13.308.401c2.23-1.075 3.848-4.302 7.613-4.27 3.772-.109.465-3.323-3.323-2.937-3.787.387-7.654 2.308-6.461-1.095 1.049-3.414.088-9.935.983-10.421.895-.486 4.38 4.844 6.906 3.652 2.526-1.191-.926-4.418-3.11-6.979-2.182-2.561-2.434-3.282-4.165-3.425-1.731-.144-4.623-.243-4.171 2.175 0 0-1.398-.956-3.195.156 0 0-2.682-1.343-4.35.06 0 0-2.848-.936-4.105.92-1.4 1.845-.165 10.455-1.71 12.288-1.546 1.832-3.262 2.942-3.262 2.942m11.961-.109s3.513-1.325 6.475.262m.619-15.65s-.16.27 1.212 1.942" stroke="#19191B" stroke-width="2" stroke-miterlimit="10" stroke-linecap="round" stroke-linejoin="round"/><path d="M87.26 29.472s3.199 5.258 1.72 5.832c-1.773.69-3.77-2.665-5.794-5.467 0 0 4.612 5.927 2.557 6.455-2.062.667-4.245-4.648-6.183-6.332 0 0 3.631 5.293 1.98 6.41-1.947 1.23-2.486-5.062-5.16-3.75m16.274 43.496s-21.54-.468-39.771-.16c0 0 5.488-4.34 22.047-19.033 0 0-4.886-6.43-5.74-12.007 0 0-44.984 30.515-42.709 39.338 2.761 10.564 62.071 13.088 62.071 13.088s-.425 25.84.32 48.99c.636 19.903 1.02 28.666 1.02 28.666m17.165-103.329s-7.348-.288-14.529 1.839m61.326 3.172s-5.105-2.158-17.307-3.475m13.157 76.573s.899-5.676 4.621-43.708c0 0 14.454 15.333 20.406 21.033 0 0-13.549 12.916-22.771 24.041 0 0 4.78 3.183 7.273 10.768 0 0 36.91-26.619 35.533-35.915-1.232-9.28-41.573-49.325-41.573-49.325" stroke="#19191B" stroke-width="2" stroke-miterlimit="10" stroke-linecap="round" stroke-linejoin="round"/><path d="M109.421 70.846l7.875 4.366 15.565-4.296 3.754 2.93-11.891 11.512-7.58-7.25-6.378 5.72-3.831-12.488 2.486-.494zm44.29 14.607c-2.62 5.312-3.554 11.3-2.463 17.123m-22.063-49.818c-1.06 5.693-.837 11.607.558 17.159m-20.051-1.63c-.195.852-.237 1.569-.432 2.42" stroke="#19191B" stroke-width="2" stroke-miterlimit="10" stroke-linecap="round" stroke-linejoin="round"/><path d="M101.817 40.748a1.15 1.15 0 10.137-2.295 1.15 1.15 0 00-.137 2.295zm12.62.754a1.15 1.15 0 10.138-2.294 1.15 1.15 0 00-.138 2.294z" fill="#19191B"/><path d="M152.128 152.854c-1.181.505-5.715 4.12-9.173 4.201-3.459.081-13.125-1.936-13.058-.637.066 1.299 9.267 3.864 9.267 3.864s-17.387 9.179-16.73 10.225c.657 1.047 10.27-3.272 10.27-3.272s-12.391 7.463-11 8.266c1.526.954 13.039-6.273 13.039-6.273s-10.139 8.317-9.169 8.95c.978.491 12.5-6.88 12.5-6.88s-8.012 6.429-7.169 6.767c.843.339 10.576-5.987 13.277-7.841 2.701-1.853 11.083-7.252 11.522-7.37m-6.974 5.915l-.471 7.887" stroke="#19191B" stroke-width="2" stroke-miterlimit="10" stroke-linecap="round" stroke-linejoin="round"/><path d="M52.342 178.043c3.196.77 5.23 1.209 8.33 1.869.774.22 1.55-.55 1.55-1.429v-47.155c0-.769-.582-1.429-1.163-1.429l-8.33-.329c-.677 0-1.258.659-1.258 1.429v45.615c-.097.66.29 1.209.871 1.429z" fill="#fff" stroke="#A6A6A6" stroke-width="2" stroke-miterlimit="10" stroke-linecap="round" stroke-linejoin="round"/><path d="M55.22 178.69l6.587-3.952m-9.881 3.294l9.88-5.929m-10.539 3.952l10.54-6.587m-10.54 3.952l10.54-6.587m-10.54 3.953l10.54-6.587m-10.54 3.952l10.54-6.588m-10.54 3.953l10.54-6.587m-10.54 3.952l10.54-6.587m-10.54 4.254l7.905-4.611m-7.905 2.635l3.953-2.635m3.293 23.055l3.953-2.635" stroke="#A6A6A6"/><path d="M51.926 155.278l9.88.988" stroke="#A6A6A6" stroke-width="2"/><path d="M35.684 174.196c3.196.769 5.23 1.209 8.33 1.869.774.219 1.55-.55 1.55-1.429v-67.49c0-.769-.582-1.429-1.357-1.429-3.099.11-5.23.22-8.329.44-.678 0-1.162.659-1.162 1.429v65.181c-.097.66.29 1.209.968 1.429zm-16.755-3.847c3.196.769 5.23 1.209 8.33 1.869.774.219 1.549-.55 1.549-1.429v-70.458c0-.88-.581-1.429-1.356-1.429-3.1.22-5.133.44-8.33.66-.677 0-1.162.659-1.162 1.429v67.819c-.096.769.388 1.429.969 1.539zm-16.755-3.847c3.196.769 5.23 1.209 8.329 1.868.775.22 1.55-.549 1.55-1.429v-78.37c0-.88-.678-1.54-1.453-1.43-3.1.44-5.133.77-8.33 1.21-.58.11-1.065.659-1.065 1.428v75.294c0 .659.388 1.319.969 1.429z" fill="#fff" stroke="#A6A6A6" stroke-width="2" stroke-miterlimit="10" stroke-linecap="round" stroke-linejoin="round"/><path d="M38.326 163.795l6.974-4.185m-10.462-17.407l10.462-6.277m-10.462 8.883l10.462-6.278m-10.462 8.883l10.462-6.277m-10.462 8.883l10.462-6.278m-10.462 8.883l10.462-6.277m-10.462 8.882l10.462-6.277m-10.462 8.883l10.462-6.277m-10.462 8.882l10.462-6.277m-10.462 8.883L45.3 156.77m-11.16-16.659l11.16-6.975m-11.16 4.185l11.16-6.974m-11.16 4.184l11.16-6.974m-11.16 4.184l11.16-6.975m-11.16 4.185l11.16-6.974m-11.16 4.185l11.16-6.975m-11.16 4.504l8.37-4.882m-8.37 2.789l4.185-2.789m3.488 45.964l4.185-2.79" stroke="#A6A6A6"/><path d="M34.838 118.111l10.501.33" stroke="#A6A6A6" stroke-width="2"/><path d="M21.625 159.843l6.975-4.185m-10.23-4.232l10.462-6.278m-10.462 8.883l10.462-6.277m-10.462 8.883l10.462-6.278m-10.462 8.883l10.462-6.277m-11.159-3.632l11.16-6.974m-11.16 4.184l11.16-6.974m-11.16 4.185l11.16-6.975m-11.16 4.185l11.16-6.975m-11.16 4.185l11.16-6.975m-11.16 4.185l11.16-6.975m-11.16 4.504l8.37-4.882m-8.37 2.79l4.185-2.79m3.255 32.79l4.184-2.79" stroke="#A6A6A6"/><path d="M18.37 127.334l10.462 1.046" stroke="#A6A6A6" stroke-width="2"/><path d="M5.39 155.89l6.974-4.184M1.903 121.124l10.461-6.277M1.903 123.73l10.461-6.278m-10.461 8.883l10.461-6.277M1.903 128.94l10.461-6.277m-10.461 8.883l10.461-6.277m-10.461 8.882l10.461-6.277m-10.461 8.883l10.461-6.278m-10.461 8.883l10.461-6.277m-10.461 8.883l10.461-6.278m-10.461 8.883l10.461-6.277m-10.461 8.882l10.461-6.277m-10.461 8.883l10.461-6.277m-10.461 8.882l10.461-6.277m-10.461 8.883l10.461-6.277M1.205 119.032l11.16-6.975m-11.16 4.185l11.16-6.975m-11.16 4.185l11.16-6.974m-11.16 4.184l11.16-6.974m-11.16 4.185l11.16-6.975m-11.16 4.185l11.16-6.975m-11.16 4.504l8.37-4.882m-8.37 2.79l4.185-2.79m3.72 59.245l2.635-1.976" stroke="#A6A6A6"/><path d="M1.205 97.691l10.869-.33" stroke="#A6A6A6" stroke-width="2"/><defs><linearGradient id="paint0_linear" x1="115.492" y1="65.513" x2="115.821" y2="155.427" gradientUnits="userSpaceOnUse"><stop stop-color="#fff"/><stop offset="1" stop-color="#fff" stop-opacity="0"/></linearGradient></defs></svg>