<svg width="244" height="238" fill="none" xmlns="http://www.w3.org/2000/svg"><path d="M143.329 60.805s-10.738 30.587 10.992 33.387c21.729 2.799 28.395-17.915 28.395-17.915s8.549 1.68 12.01-6.158c3.409-7.838-.255-13.233-7.583-9.62" stroke="#19191B" stroke-width="3" stroke-miterlimit="10"/><path d="M171.165 90.884s-3.308 11.553 4.58 14.861m-35.673 1.069s.814 9.211 15.47 9.619c17.251.509 20.254-10.994 20.254-10.994s14.859 1.375 28.395 7.431c23.867 9.415 30.991 49.622 25.139 71.252-8.956 33.336-39.286 42.395-63.152 43.515-4.682.203-12.112.559-22.34 3.664-10.229 3.105-24.274 6.056-25.292 3.97-1.017-2.087 15.725-5.7 15.725-5.7s-21.17 6.209-22.747 3.206c-1.578-3.003 18.778-7.736 19.185-8.143.407-.407-23.616 7.074-23.209 3.003.458-4.072 20.512-7.278 20.512-7.278s-14.809 1.06-16.488-2.859c-1.73-3.919 30.431-3.503 30.431-3.503s-16.691-3.671-13.943-7.997c1.323-2.036 11.704 2.551 23.408 5.656" stroke="#19191B" stroke-width="3" stroke-miterlimit="10" stroke-linejoin="round"/><path d="M137.222 151.244c-2.392 14.556-.56 41.683-1.476 53.286m14.707 6.82c18.167 4.479 35.978-8.499 45.494-22.8 6.666-9.976 8.498-26.618 6.412-32.522" stroke="#19191B" stroke-width="3"/><path d="M193.606 59.33c2.188-2.596 12.722-18.628 7.277-32.166-5.801-11.4-24.731-17.508-43.916-12.266-19.999 5.446-21.068 25.804-21.068 25.804s6.87 13.538 43.713-3.868m-38.98 21.884s2.595-1.17 7.43-.56c4.834.713 6.869 3.36 6.869 3.36l-4.274 10.127c-.967 2.24.814 4.683 3.257 4.48l1.577-.103m-5.038 7.685c2.341 2.85 7.786 1.273 10.127 0" stroke="#19191B" stroke-width="3" stroke-miterlimit="10"/><path d="M149.995 93.123c.153.56.713 5.853-2.849 10.535-3.563 4.631-6.514 5.089-6.514 5.089" stroke="#19191B" stroke-width="3" stroke-miterlimit="10" stroke-linejoin="round"/><path d="M158.748 60.093s2.595-1.171 7.43-.56c4.834.712 6.87 3.359 6.87 3.359" stroke="#19191B" stroke-width="3" stroke-miterlimit="10"/><path d="M148.57 64.113a1.883 1.883 0 100-3.766 1.883 1.883 0 000 3.766zm19.236 1.883a1.883 1.883 0 100-3.766 1.883 1.883 0 000 3.766z" fill="#19191B"/><path d="M166.228 210.485s9.771 5.7 4.072 16.897" stroke="#19191B" stroke-width="3"/><path d="M178.9 37.19s-4.784 4.53.254 8.092c4.02 2.85-.967 4.428 1.374 8.093 3.257 5.089 2.901 10.433 3.511 10.433 0 0 1.374-3.41 4.631-3.97" stroke="#19191B" stroke-width="3" stroke-miterlimit="10"/><path d="M140.072 106.814c-24.935 3.257-18.315 73.909-24.981 103.885m-49.468 12.477h29.768m-36.689-4.242c-.204.712-6.412 8.448-6.412 8.448" stroke="#19191B" stroke-width="3" stroke-miterlimit="10" stroke-linejoin="round"/><path d="M110.932 218.934H57.939L39.25 134.308l-7.773 1.77 20.05 91.304H104.5" stroke="#19191B" stroke-width="3" stroke-miterlimit="10" stroke-linejoin="round"/><path d="M243.5 97.25c0 9.197-5.896 18.264-11.885 25.086-2.985 3.399-5.971 6.216-8.211 8.184a82.092 82.092 0 01-2.704 2.277c-.304.245-.547.435-.719.569a53.574 53.574 0 01-.719-.569 81.047 81.047 0 01-2.704-2.277c-2.241-1.968-5.227-4.785-8.211-8.184-5.99-6.822-11.885-15.889-11.885-25.086 0-12.957 10.514-23.522 23.519-23.522 13.005 0 23.519 10.515 23.519 23.522z" fill="#EBEBEB" stroke="#fff"/><path d="M238.351 98.726c0 14.403-18.37 28.144-18.37 28.144s-18.371-13.792-18.371-28.144c.051-10.128 8.244-18.373 18.422-18.373 10.126 0 18.319 8.245 18.319 18.373z" stroke="#19191B" stroke-width="3" stroke-miterlimit="10"/><path d="M220.032 101.576a3.46 3.46 0 10-.001-6.921 3.46 3.46 0 00.001 6.921z" stroke="#19191B" stroke-width="3" stroke-miterlimit="10"/><rect x="61.052" y="82.451" width="35.773" height="35.773" rx="6.5" fill="#EBEBEB" stroke="#fff"/><circle cx="72.534" cy="99.339" r="1" stroke="#BABABA" stroke-width="1.869"/><circle cx="72.534" cy="105.529" r="1" stroke="#BABABA" stroke-width="1.869"/><circle cx="78.724" cy="99.339" r="1" stroke="#BABABA" stroke-width="1.869"/><circle cx="78.724" cy="105.529" r="1" stroke="#BABABA" stroke-width="1.869"/><path d="M85.3 89.668v0a5.416 5.416 0 015.417 5.416v11.182a7 7 0 01-7 7h-9.598a7 7 0 01-7-7v-12.29a4.308 4.308 0 014.308-4.308v0a2.462 2.462 0 002.462-2.462v-.44" stroke="#BABABA" stroke-width="2"/><circle cx="84.914" cy="99.339" r="1" stroke="#19191B" stroke-width="1.869"/><circle cx="78.492" cy="99.339" r="1" stroke="#19191B" stroke-width="1.869"/><circle cx="72.199" cy="99.339" r="1" stroke="#BABABA" stroke-width="1.869"/><circle cx="84.914" cy="105.529" r="1" stroke="#BABABA" stroke-width="1.869"/><circle cx="78.492" cy="105.529" r="1" stroke="#19191B" stroke-width="1.869"/><circle cx="72.199" cy="105.529" r="1" stroke="#19191B" stroke-width="1.869"/><path d="M75.823 94.116h4.19a2 2 0 002-2v-.418c0-.907.736-1.644 1.644-1.644v0c.908 0 1.644-.736 1.644-1.644v-1.644" stroke="#BABABA" stroke-width="2"/><rect x="101.058" y="188.784" width="23.077" height="23.077" rx="6.5" fill="#EBEBEB" stroke="#fff"/><path d="M105.812 197.887l1.22-1.569c.584-.752 1.789-.339 1.789.614v9.554m4.433-8.133v-1.204a2.517 2.517 0 012.517-2.517v0a2.517 2.517 0 012.517 2.517v.827c0 1.911-.817 3.73-2.245 4.999l-1.699 1.511c-.687.61-.255 1.747.664 1.747h3.718" stroke="#19191B" stroke-width="2"/><rect x="76.421" y="135.618" width="23.077" height="23.077" rx="6.5" fill="#EBEBEB" stroke="#fff"/><path d="M85.38 144.72l1.22-1.569c.585-.752 1.79-.338 1.79.614v9.554" stroke="#19191B" stroke-width="2"/><g filter="url(#filter0_d)"><rect x="166" y="139" width="28.017" height="3.064" rx="1.532" fill="#8C8C8C"/></g><g filter="url(#filter1_d)"><rect x="166" y="145.567" width="28.017" height="3.064" rx="1.532" fill="#8C8C8C"/></g><g filter="url(#filter2_d)"><rect x="166" y="152.133" width="15.322" height="3.064" rx="1.532" fill="#8C8C8C"/></g><g filter="url(#filter3_d)"><rect x="103.686" y="20.827" width="13.79" height="1.532" rx=".766" stroke="#D8D8D8" stroke-width="1.532"/></g><g filter="url(#filter4_d)"><rect x="103.686" y="27.394" width="13.79" height="1.532" rx=".766" stroke="#D8D8D8" stroke-width="1.532"/></g><g filter="url(#filter5_d)"><rect x="103.686" y="33.96" width="6.847" height="1.532" rx=".766" stroke="#D8D8D8" stroke-width="1.532"/></g><g filter="url(#filter6_d)"><rect x="24.766" y="79.809" width="13.79" height="1.532" rx=".766" stroke="#A6A6A6" stroke-width="1.532"/></g><g filter="url(#filter7_d)"><rect x="24.766" y="86.376" width="13.79" height="1.532" rx=".766" stroke="#A6A6A6" stroke-width="1.532"/></g><g filter="url(#filter8_d)"><rect x="24.766" y="92.943" width="6.847" height="1.532" rx=".766" stroke="#A6A6A6" stroke-width="1.532"/></g><g filter="url(#filter9_d)"><rect x="65.537" y="192.662" width="28.017" height="3.064" rx="1.532" fill="#A6A6A6"/></g><g filter="url(#filter10_d)"><rect x="65.536" y="199.229" width="28.017" height="3.064" rx="1.532" fill="#A6A6A6"/></g><g filter="url(#filter11_d)"><rect x="65.536" y="205.795" width="15.322" height="3.064" rx="1.532" fill="#A6A6A6"/></g><defs><filter id="filter0_d" x="142" y="119" width="76.017" height="51.064" filterUnits="userSpaceOnUse" color-interpolation-filters="sRGB"><feFlood flood-opacity="0" result="BackgroundImageFix"/><feColorMatrix in="SourceAlpha" values="0 0 0 0 0 0 0 0 0 0 0 0 0 0 0 0 0 0 127 0" result="hardAlpha"/><feOffset dy="4"/><feGaussianBlur stdDeviation="12"/><feColorMatrix values="0 0 0 0 0.172549 0 0 0 0 0.368627 0 0 0 0 0.662745 0 0 0 0.22 0"/><feBlend in2="BackgroundImageFix" result="effect1_dropShadow"/><feBlend in="SourceGraphic" in2="effect1_dropShadow" result="shape"/></filter><filter id="filter1_d" x="142" y="125.567" width="76.017" height="51.064" filterUnits="userSpaceOnUse" color-interpolation-filters="sRGB"><feFlood flood-opacity="0" result="BackgroundImageFix"/><feColorMatrix in="SourceAlpha" values="0 0 0 0 0 0 0 0 0 0 0 0 0 0 0 0 0 0 127 0" result="hardAlpha"/><feOffset dy="4"/><feGaussianBlur stdDeviation="12"/><feColorMatrix values="0 0 0 0 0.172549 0 0 0 0 0.368627 0 0 0 0 0.662745 0 0 0 0.22 0"/><feBlend in2="BackgroundImageFix" result="effect1_dropShadow"/><feBlend in="SourceGraphic" in2="effect1_dropShadow" result="shape"/></filter><filter id="filter2_d" x="142" y="132.133" width="63.322" height="51.064" filterUnits="userSpaceOnUse" color-interpolation-filters="sRGB"><feFlood flood-opacity="0" result="BackgroundImageFix"/><feColorMatrix in="SourceAlpha" values="0 0 0 0 0 0 0 0 0 0 0 0 0 0 0 0 0 0 127 0" result="hardAlpha"/><feOffset dy="4"/><feGaussianBlur stdDeviation="12"/><feColorMatrix values="0 0 0 0 0.172549 0 0 0 0 0.368627 0 0 0 0 0.662745 0 0 0 0.22 0"/><feBlend in2="BackgroundImageFix" result="effect1_dropShadow"/><feBlend in="SourceGraphic" in2="effect1_dropShadow" result="shape"/></filter><filter id="filter3_d" x="78.92" y=".061" width="63.322" height="51.064" filterUnits="userSpaceOnUse" color-interpolation-filters="sRGB"><feFlood flood-opacity="0" result="BackgroundImageFix"/><feColorMatrix in="SourceAlpha" values="0 0 0 0 0 0 0 0 0 0 0 0 0 0 0 0 0 0 127 0" result="hardAlpha"/><feOffset dy="4"/><feGaussianBlur stdDeviation="12"/><feColorMatrix values="0 0 0 0 0.172549 0 0 0 0 0.368627 0 0 0 0 0.662745 0 0 0 0.22 0"/><feBlend in2="BackgroundImageFix" result="effect1_dropShadow"/><feBlend in="SourceGraphic" in2="effect1_dropShadow" result="shape"/></filter><filter id="filter4_d" x="78.92" y="6.628" width="63.322" height="51.064" filterUnits="userSpaceOnUse" color-interpolation-filters="sRGB"><feFlood flood-opacity="0" result="BackgroundImageFix"/><feColorMatrix in="SourceAlpha" values="0 0 0 0 0 0 0 0 0 0 0 0 0 0 0 0 0 0 127 0" result="hardAlpha"/><feOffset dy="4"/><feGaussianBlur stdDeviation="12"/><feColorMatrix values="0 0 0 0 0.172549 0 0 0 0 0.368627 0 0 0 0 0.662745 0 0 0 0.22 0"/><feBlend in2="BackgroundImageFix" result="effect1_dropShadow"/><feBlend in="SourceGraphic" in2="effect1_dropShadow" result="shape"/></filter><filter id="filter5_d" x="78.92" y="13.194" width="56.379" height="51.064" filterUnits="userSpaceOnUse" color-interpolation-filters="sRGB"><feFlood flood-opacity="0" result="BackgroundImageFix"/><feColorMatrix in="SourceAlpha" values="0 0 0 0 0 0 0 0 0 0 0 0 0 0 0 0 0 0 127 0" result="hardAlpha"/><feOffset dy="4"/><feGaussianBlur stdDeviation="12"/><feColorMatrix values="0 0 0 0 0.172549 0 0 0 0 0.368627 0 0 0 0 0.662745 0 0 0 0.22 0"/><feBlend in2="BackgroundImageFix" result="effect1_dropShadow"/><feBlend in="SourceGraphic" in2="effect1_dropShadow" result="shape"/></filter><filter id="filter6_d" x="0" y="59.043" width="63.322" height="51.064" filterUnits="userSpaceOnUse" color-interpolation-filters="sRGB"><feFlood flood-opacity="0" result="BackgroundImageFix"/><feColorMatrix in="SourceAlpha" values="0 0 0 0 0 0 0 0 0 0 0 0 0 0 0 0 0 0 127 0" result="hardAlpha"/><feOffset dy="4"/><feGaussianBlur stdDeviation="12"/><feColorMatrix values="0 0 0 0 0.172549 0 0 0 0 0.368627 0 0 0 0 0.662745 0 0 0 0.22 0"/><feBlend in2="BackgroundImageFix" result="effect1_dropShadow"/><feBlend in="SourceGraphic" in2="effect1_dropShadow" result="shape"/></filter><filter id="filter7_d" x="0" y="65.61" width="63.322" height="51.064" filterUnits="userSpaceOnUse" color-interpolation-filters="sRGB"><feFlood flood-opacity="0" result="BackgroundImageFix"/><feColorMatrix in="SourceAlpha" values="0 0 0 0 0 0 0 0 0 0 0 0 0 0 0 0 0 0 127 0" result="hardAlpha"/><feOffset dy="4"/><feGaussianBlur stdDeviation="12"/><feColorMatrix values="0 0 0 0 0.172549 0 0 0 0 0.368627 0 0 0 0 0.662745 0 0 0 0.22 0"/><feBlend in2="BackgroundImageFix" result="effect1_dropShadow"/><feBlend in="SourceGraphic" in2="effect1_dropShadow" result="shape"/></filter><filter id="filter8_d" x="0" y="72.177" width="56.379" height="51.064" filterUnits="userSpaceOnUse" color-interpolation-filters="sRGB"><feFlood flood-opacity="0" result="BackgroundImageFix"/><feColorMatrix in="SourceAlpha" values="0 0 0 0 0 0 0 0 0 0 0 0 0 0 0 0 0 0 127 0" result="hardAlpha"/><feOffset dy="4"/><feGaussianBlur stdDeviation="12"/><feColorMatrix values="0 0 0 0 0.172549 0 0 0 0 0.368627 0 0 0 0 0.662745 0 0 0 0.22 0"/><feBlend in2="BackgroundImageFix" result="effect1_dropShadow"/><feBlend in="SourceGraphic" in2="effect1_dropShadow" result="shape"/></filter><filter id="filter9_d" x="41.536" y="172.662" width="76.017" height="51.064" filterUnits="userSpaceOnUse" color-interpolation-filters="sRGB"><feFlood flood-opacity="0" result="BackgroundImageFix"/><feColorMatrix in="SourceAlpha" values="0 0 0 0 0 0 0 0 0 0 0 0 0 0 0 0 0 0 127 0" result="hardAlpha"/><feOffset dy="4"/><feGaussianBlur stdDeviation="12"/><feColorMatrix values="0 0 0 0 0.172549 0 0 0 0 0.368627 0 0 0 0 0.662745 0 0 0 0.22 0"/><feBlend in2="BackgroundImageFix" result="effect1_dropShadow"/><feBlend in="SourceGraphic" in2="effect1_dropShadow" result="shape"/></filter><filter id="filter10_d" x="41.536" y="179.229" width="76.017" height="51.064" filterUnits="userSpaceOnUse" color-interpolation-filters="sRGB"><feFlood flood-opacity="0" result="BackgroundImageFix"/><feColorMatrix in="SourceAlpha" values="0 0 0 0 0 0 0 0 0 0 0 0 0 0 0 0 0 0 127 0" result="hardAlpha"/><feOffset dy="4"/><feGaussianBlur stdDeviation="12"/><feColorMatrix values="0 0 0 0 0.172549 0 0 0 0 0.368627 0 0 0 0 0.662745 0 0 0 0.22 0"/><feBlend in2="BackgroundImageFix" result="effect1_dropShadow"/><feBlend in="SourceGraphic" in2="effect1_dropShadow" result="shape"/></filter><filter id="filter11_d" x="41.536" y="185.795" width="63.322" height="51.064" filterUnits="userSpaceOnUse" color-interpolation-filters="sRGB"><feFlood flood-opacity="0" result="BackgroundImageFix"/><feColorMatrix in="SourceAlpha" values="0 0 0 0 0 0 0 0 0 0 0 0 0 0 0 0 0 0 127 0" result="hardAlpha"/><feOffset dy="4"/><feGaussianBlur stdDeviation="12"/><feColorMatrix values="0 0 0 0 0.172549 0 0 0 0 0.368627 0 0 0 0 0.662745 0 0 0 0.22 0"/><feBlend in2="BackgroundImageFix" result="effect1_dropShadow"/><feBlend in="SourceGraphic" in2="effect1_dropShadow" result="shape"/></filter></defs></svg>