<svg width="239" height="263" fill="none" xmlns="http://www.w3.org/2000/svg"><path d="M1.65 36.989l23.992 53.214c.928 2.059 3.25 2.938 5.31 2.01l38.881-17.53c1.982-.894 2.903-3.327 2.01-5.31L52.869 27.29c-.516-1.144-1.565-2.047-2.79-2.32l-19.773-4.387c-.817-.182-1.716-.144-2.479.2L3.66 31.68c-2.058.928-2.903 3.327-2.01 5.31z" fill="#fff"/><path d="M29.445 28.035L10.157 36.73c-1.449.653-2.077 2.312-1.382 3.65l20.07 43.7c.618 1.372 2.277 2 3.65 1.382l31.563-14.23c1.372-.62 2-2.279 1.381-3.65L50.281 33.96c-.653-1.449-2.312-2.077-3.727-1.347L39.27 35.99c-1.372.618-3.073.101-3.727-1.348l-1.347-2.786c-.929-2.059.732-4.275 2.89-3.964l7.334 1.005a2.772 2.772 0 012.182 1.585l3.755 8.123a2.82 2.82 0 01-1.424 3.761L24.011 53.419c-1.449.653-2.077 2.312-1.458 3.685l1.718 3.812c.62 1.372 2.278 2 3.65 1.381l21.465-9.77c1.373-.618 3.032.01 3.65 1.382l.997 2.211c.62 1.373-.009 3.032-1.381 3.65l-21.465 9.77c-1.449.653-2.077 2.312-1.347 3.726l.893 1.982c.62 1.373 2.278 2 3.727 1.348l24.286-11.041" stroke="#A6A6A6" stroke-width="3" stroke-miterlimit="10"/><mask id="a" maskUnits="userSpaceOnUse" x="157" y="236" width="34" height="27"><path d="M177.17 240.523c-5.25.787-15.311 1.64-19.686 1.969 1.094 6.124 3.544 18.57 4.593 19.357 1.313.984 5.25 0 7.547 0 2.296 0 10.498-.984 13.123-1.969 2.625-.984 7.546-10.499 7.546-11.155v-12.467c-2.187 1.093-7.874 3.478-13.123 4.265z" fill="#000"/></mask><g mask="url(#a)"><circle cx="174.997" cy="243.272" r="14.054" transform="rotate(-21.08 174.997 243.272)" fill="#fff"/><path d="M173.798 250.61l-3.582-9.294a1.434 1.434 0 01.823-1.856l5.873-2.264a1.434 1.434 0 011.856.823l.989 2.566a1.435 1.435 0 01-.823 1.857l-8.068 3.11a1.435 1.435 0 101.033 2.679l4.02-1.549" stroke="#BABABA" stroke-width="2" stroke-miterlimit="10"/><path d="M179.017 253.87c5.715-2.203 8.562-8.622 6.359-14.337-2.203-5.716-8.622-8.563-14.337-6.36-5.716 2.203-8.563 8.623-6.36 14.338 2.203 5.715 8.623 8.562 14.338 6.359z" stroke="#BABABA" stroke-width="2" stroke-miterlimit="10"/></g><mask id="b" maskUnits="userSpaceOnUse" x="125" y="187" width="37" height="39"><path d="M141.736 225.103c-7.874-.788-14.436-4.047-16.733-5.578l5.906-26.247c.875-1.203 2.624-3.872 2.624-4.922 0-1.05 10.937-.437 16.405 0l11.811 4.922v28.216c-3.39 1.531-12.139 4.396-20.013 3.609z" fill="#D1D1D1"/></mask><g mask="url(#b)"><path d="M148.863 193.811c-11.01-2.001-11.368 10.405-10.171 16.858-3.051.318-9.416 2.404-10.469 8.199-1.316 7.243 4.215 9.745 13.994 11.521 9.778 1.777 15.408 1.678 16.79-5.928 1.106-6.084-4.391-10.151-7.277-11.423 3.632-5.576 8.143-17.227-2.867-19.227z" fill="#fff"/><path d="M131.118 219.409c-.891 4.902 6.089 5.918 11.691 6.936 5.603 1.017 12.438 3.019 13.607-2.086 1.336-5.835-4.452-8.268-8-10.57-2.712-1.759 2.661-1.903 4.048-7.114 1.737-6.522-.797-9.262-4.265-9.892-4.001-.727-6.626 1.582-7.65 7.22s3.955 8.569 1.731 8.671c-2.223.103-10.271 1.932-11.162 6.835z" stroke="#A6A6A6" stroke-width="2"/></g><path d="M128.257 58.739s-11.837 33.71 12.107 36.806c23.944 3.097 31.298-19.73 31.298-19.73s9.416 1.858 13.272-6.813c3.767-8.67-.269-14.599-8.34-10.617" stroke="#19191B" stroke-width="3" stroke-miterlimit="10"/><path d="M156.947 91.897s-1.621 12.766 7.099 16.405M67.56 168.751c-.984-1.136-9.243-15.987-9.092-29.247.076-13.26 11.745-33.34 6.365-35.158-5.38-1.743-9.396 17.2-9.396 17.2S38.01 82.676 34.221 85.63c-3.712 2.956 4.85 22.656 4.85 22.656s-2.955-28.642-7.426-28.035c-4.47.606 4.168 32.354 3.637 32.051-.53-.303-11.593-23.035-14.396-20.534-2.804 2.5 10.153 25.686 10.153 25.686s-8.41-16.897-10.38-15.23c-1.895 1.667 5.076 15.837 11.138 25.99 6.061 10.077 9.092 18.791 10.001 22.883.91 4.091 2.822 111.08 66.144 15.933" stroke="#19191B" stroke-width="3" stroke-miterlimit="10" stroke-linejoin="round"/><path d="M64.681 163.447s13.109-27.429 30.688-42.886c14.472-12.73 29.323-11.063 29.323-11.063s.248 14.097 16.388 14.552c19.023.536 23.013-16.067 23.013-16.067s16.381 1.515 31.294 8.183c32.309 14.446 46.539 54.828 40.098 78.696-9.85 36.749-55.691 46.645-82.045 47.887-5.142.243-13.336.607-24.626 4.016-11.29 3.41-26.747 6.668-27.884 4.395-1.136-2.273 17.352-6.289 17.352-6.289s-23.361 6.86-25.104 3.526c-1.743-3.334 20.709-8.527 21.164-8.982.454-.454-26.54 6.562-26.085 2.092.53-4.471 23.13-6.789 23.13-6.789s-16.315 3.234-18.209-1.085c-1.894-4.319 33.59-5.962 33.59-5.962s-16.897-8.335-13.866-13.109c1.44-2.267 11.396 7.123 24.277 10.533" stroke="#19191B" stroke-width="3" stroke-miterlimit="10" stroke-linejoin="round"/><path d="M108.27 141.767c-2.624 16.077 1.969 42.652.985 55.448m26.903 27.559c20.014 4.922 49.87-16.076 60.369-31.825 7.325-10.987 2.297-23.95 0-30.512m-153.875-9.515c1.968.328 8.53.656 13.123-1.64m92.755 73.823c-.326 1.969-.644 8.532 1.659 13.121" stroke="#19191B" stroke-width="3"/><path d="M183.733 57.12c2.427-2.883 16.002-22.523 8.001-35.496C183.733 8.65 172.135 7.299 151.548 8.29c-20.587.991-18.52-7.567-19.778-6.126-1.079 1.171-.45 9.37 2.697 11.982 2.697 2.342-6.923 6.397-15.104-4.234-1.887 4.865.81 10.63 2.697 14.504 2.608 5.586-8.54 3.965-8.54 3.965S126.735 65.138 168 41.623m-42.669 14.84s2.072 3.885 7.426 4.576c5.353.777 8.375-1.468 8.375-1.468l-6.994 16.578 7.598-.605m9.186-16.634c.921.56 2.118.64 3.224.719 4.236.16 8.749.399 12.525-1.197M138.455 85.95c2.686.137 5.373-.068 7.874-.615" stroke="#19191B" stroke-width="3" stroke-miterlimit="10"/><path d="M137.023 93.866c.151.63.73 6.744-3.185 11.915-3.915 5.108-8.507 5.802-8.507 5.802" stroke="#19191B" stroke-width="3" stroke-miterlimit="10" stroke-linejoin="round"/><g filter="url(#filter0_d)"><circle cx="176.274" cy="219.614" r="11.297" transform="rotate(4.944 176.274 219.614)" fill="#fff"/><path d="M172.82 224.492l.69-7.976a1.153 1.153 0 011.25-1.051l5.04.436a1.153 1.153 0 011.05 1.25l-.19 2.202a1.152 1.152 0 01-1.249 1.05l-6.925-.599a1.152 1.152 0 00-1.249 1.05 1.153 1.153 0 001.05 1.25l3.45.298" stroke="#19191B" stroke-width="2" stroke-miterlimit="10"/><path d="M175.44 228.687a8.915 8.915 0 101.537-17.763 8.915 8.915 0 00-1.537 17.763z" stroke="#19191B" stroke-width="2" stroke-miterlimit="10"/></g><circle cx="115.934" cy="192.739" r="9.332" transform="rotate(-23.238 115.934 192.739)" fill="#fff"/><path d="M115.322 197.639l-2.609-6.077a.953.953 0 01.5-1.253l3.84-1.649a.953.953 0 011.252.5l.721 1.678a.953.953 0 01-.5 1.252l-5.276 2.266a.953.953 0 10.753 1.752l2.628-1.129" stroke="#A6A6A6" stroke-miterlimit="10"/><path d="M118.867 199.671a7.365 7.365 0 10-5.813-13.532 7.365 7.365 0 005.813 13.532z" stroke="#A6A6A6" stroke-miterlimit="10"/><path d="M171.705 161.646l26.089-5.059c1.13-.219 1.979-1.097 2.222-2.215l.343-1.646c.202-1.059 1.101-1.947 2.231-2.166l10.17-1.972c1.867-.362 3.605 1.238 3.309 3.131l-.368 2.569a2.796 2.796 0 01-2.242 2.372l-.148.029a2.872 2.872 0 00-2.261 2.273l-4.815 27.749c-.184 1.157-1.073 2.094-2.203 2.313l-16.311 3.163a2.82 2.82 0 01-2.957-1.313l-14.939-24.989c-.991-1.694-.036-3.868 1.88-4.239z" fill="#fff"/><path d="M212.383 152.614l-5.139.971a2.22 2.22 0 00-1.718 1.639l-4.349 19.634c-.182.843-.862 1.478-1.719 1.639l-15.216 2.875c-.906.171-1.796-.217-2.176-1.005l-6.047-11.703c-.657-1.241.147-2.758 1.558-3.025l20.859-3.94c1.461-.276 2.687.959 2.337 2.39l-3.683 15.867c-.182.844-.862 1.478-1.719 1.64l-7.305 1.38c-.907.171-1.854-.257-2.242-1.094l-3.796-8.183c-.549-1.211.213-2.67 1.623-2.937l8.263-1.56c1.411-.267 2.622.87 2.372 2.282l-.423 2.305a2.182 2.182 0 01-1.754 1.748l-4.787.904m3.681 12.198c1.182-.222 1.996-1.325 1.818-2.464-.178-1.138-1.281-1.881-2.463-1.658-1.183.222-1.997 1.325-1.818 2.464.178 1.138 1.281 1.88 2.463 1.658zm9.728-1.886c1.183-.222 1.996-1.325 1.818-2.464-.178-1.138-1.281-1.881-2.463-1.658-1.183.222-1.997 1.325-1.818 2.464.178 1.138 1.281 1.88 2.463 1.658z" stroke="#BABABA" stroke-width="2" stroke-miterlimit="10"/><path d="M73.512 174.82l-12.265 40.059a3 3 0 001.99 3.747l30.585 9.364a3 3 0 003.746-1.99l5.416-17.688a3 3 0 00-1.991-3.747l-11.624-3.559a3 3 0 01-2.107-3.167l1.886-18.847a3 3 0 00-2.107-3.167l-9.782-2.995a3 3 0 00-3.747 1.99z" fill="#fff"/><path d="M66.235 215.514l6.908-22.565a2 2 0 012.498-1.327l3.146.963a2 2 0 011.41 2.053l-.495 7.022a3 3 0 002.115 3.08l11.597 3.55a2 2 0 011.327 2.498l-3.37 11.008a1.352 1.352 0 01-1.688.897l-2.17-.665a1.332 1.332 0 01-.885-1.664l.859-2.806a2.064 2.064 0 00-1.37-2.578v0a2.064 2.064 0 00-2.578 1.37l-.859 2.805c-.216.704-.96 1.1-1.665.884l-1.662-.509a1.332 1.332 0 01-.884-1.664l1.02-3.332a1.514 1.514 0 00-1.005-1.891v0a1.514 1.514 0 00-1.89 1.005l-1.02 3.331a1.333 1.333 0 01-1.665.884l-4.2-1.286a1.43 1.43 0 01-.95-1.787l2.402-7.844 5.157-16.844.362-1.185a1.514 1.514 0 011.891-1.004v0c.8.245 1.646-.205 1.891-1.004l.403-1.316a1.514 1.514 0 00-1.004-1.891l-.527-.161a.964.964 0 01-.639-1.204v0a.965.965 0 011.203-.639l.527.161c.8.245 1.646-.204 1.89-1.004l.444-1.447" stroke="#19191B" stroke-width="2"/><defs><filter id="filter0_d" x="140.977" y="188.317" width="70.595" height="70.595" filterUnits="userSpaceOnUse" color-interpolation-filters="sRGB"><feFlood flood-opacity="0" result="BackgroundImageFix"/><feColorMatrix in="SourceAlpha" values="0 0 0 0 0 0 0 0 0 0 0 0 0 0 0 0 0 0 127 0" result="hardAlpha"/><feOffset dy="4"/><feGaussianBlur stdDeviation="12"/><feColorMatrix values="0 0 0 0 0.172549 0 0 0 0 0.368627 0 0 0 0 0.662745 0 0 0 0.22 0"/><feBlend in2="BackgroundImageFix" result="effect1_dropShadow"/><feBlend in="SourceGraphic" in2="effect1_dropShadow" result="shape"/></filter></defs></svg>